<?xml version="1.0" encoding="utf-8"?>
<svg version="1.1" xmlns="http://www.w3.org/2000/svg" xmlns:xlink="http://www.w3.org/1999/xlink" x="0px" y="0px"
	 viewBox="0 0 477 447.1" style="enable-background:new 0 0 477 447.1;" xml:space="preserve">
<style type="text/css">
	.st0{fill:#CBD5E1;}
	.st1{fill:url(#SVGID_1_);}
	.st2{fill:url(#SVGID_2_);}
	.st3{fill:url(#SVGID_3_);}
</style>
<g>
	<path class="st0" d="M413,405c0-34.2-27.8-62-62-62v62H413z"/>
</g>
<g>
	<path class="st0" d="M351,168c69.6,0,126-56.4,126-126H351V168z"/>
</g>
<g>
	<linearGradient id="SVGID_1_" gradientUnits="userSpaceOnUse" x1="-0.1067" y1="254.8638" x2="42.4929" y2="164.8094" gradientTransform="matrix(1 0 0 -1 0 532.14)">
		<stop  offset="0" style="stop-color:#E2E8F0"/>
		<stop  offset="1" style="stop-color:#94A3B8"/>
	</linearGradient>
	<path class="st1" d="M0,343v-62c34.2,0,62,27.8,62,62l0,0v62C27.8,405,0,377.3,0,343L0,343z"/>
</g>
<g>
	<linearGradient id="SVGID_2_" gradientUnits="userSpaceOnUse" x1="369.5441" y1="465.5545" x2="390.3645" y2="451.7109" gradientTransform="matrix(1 0 0 -1 0 532.14)">
		<stop  offset="0" style="stop-color:#E2E8F0"/>
		<stop  offset="1" style="stop-color:#94A3B8"/>
	</linearGradient>
	<circle class="st2" cx="381.5" cy="74.5" r="12.5"/>
</g>
<g>
	<linearGradient id="SVGID_3_" gradientUnits="userSpaceOnUse" x1="202.7729" y1="250.1815" x2="320.2168" y2="449.0804" gradientTransform="matrix(1 0 0 -1 0 532.14)">
		<stop  offset="0" style="stop-color:#E2E8F0"/>
		<stop  offset="1" style="stop-color:#94A3B8"/>
	</linearGradient>
	<path class="st3" d="M333,168.1v-126c-69.6,0-126,56.4-126,126l0,0v126C276.6,294.1,333,237.7,333,168.1L333,168.1z"/>
</g>
<g>
	<path class="st0" d="M189,312.5V197C123.1,242.7,80,318.8,80,405h253V238.4C307,285,256.1,316.6,189,312.5z"/>
</g>
</svg>
