<!DOCTYPE svg PUBLIC "-//W3C//DTD SVG 1.1//EN" "http://www.w3.org/Graphics/SVG/1.1/DTD/svg11.dtd">
<svg xmlns="http://www.w3.org/2000/svg" viewBox="0 0 2135 2136">
<path d="M1887 1.985c-59.866 11.322-89.847 29.644-160.884 98.322l-29.385 28.408-36.615.67c-82.473 1.509-106.297 2.909-155.659 9.148-82.478 10.424-153.822 38.924-225.104 89.923-5.031 3.599-9.445 6.544-9.809 6.544-.364 0-4.276-2.751-8.693-6.113-45.166-34.382-104.307-47.849-161.588-36.795-96.301 18.584-169.242 95.575-180.368 190.383-1.149 9.795-.747 41.748.714 56.696l.652 6.671-281.38 281.833c-509.469 510.29-567.73 569.585-589.399 599.87-18.531 25.901-36.935 73.674-44.412 115.284-1.119 6.231-2.566 13.206-3.214 15.5-2.024 7.163-1.713 63.223.408 73.671.95 4.675 2.658 13.45 3.796 19.5 7.216 38.346 21.944 79.633 36.92 103.5 20.936 33.364 63.762 79.669 188.688 204.018 215.646 214.649 221.584 220.11 259.832 238.973 37.171 18.332 53.809 23.76 106 34.586 31.406 6.514 79.497 3.332 123.5-8.171 43.896-11.476 65.145-21.678 93.5-44.891 51.465-42.132 90.767-80.701 555.577-545.21l319.576-319.37 15.924 1.529c34.105 3.275 60.073.542 90.839-9.56 106.232-34.884 172.016-155.414 143.481-262.888-6.632-24.979-15.976-44.224-33.179-68.335l-7.005-9.819 3.314-4.681c68.039-96.092 94.753-177.69 100.404-306.681 1.286-29.348 1.524-37.725 2.161-76l.666-40 18.621-19.244c60.18-62.193 71.491-75.855 85.496-103.256 18.597-36.385 24.625-61.873 24.625-104.124 0-29.286-.838-36.269-6.979-58.139-22.066-78.584-88.326-138.474-168.402-152.213-13.301-2.282-59.671-1.988-72.619.461m22.5 152.98c-19.36 4.161-33.767 15.343-88.948 69.035-23.757 23.115-43.894 41.045-55.423 49.345-13.201 9.505-21.139 10.244-125.629 11.691-38.5.534-72.025 1.184-74.5 1.446-2.475.262-10.575.972-18 1.578-35.228 2.876-68.567 11.196-102 25.454-25.103 10.706-53.694 24.723-59.748 29.294-2.239 1.691-1.4 2.546 201.646 205.59l203.894 203.892 2.794-4.395c4.219-6.635 18.216-34.715 24.627-49.405 26.751-61.295 30.943-89.764 32.246-218.99.829-82.089 2.085-96.168 9.573-107.232 8.307-12.276 25.238-31.204 61.515-68.768 52.269-54.125 59.487-65.282 59.438-91.886-.046-25.312-13.997-45.515-37.778-54.709-6.32-2.443-26.075-3.58-33.707-1.94m-789.429 189.626c-27.528 7.401-47.102 32.668-47.148 60.86-.029 18.438 2.214 23.839 16.282 39.197 92.43 100.91 510.145 517.878 605.795 604.712 12.728 11.555 16.355 12.992 33 13.077 19.204.097 31.689-5.088 45.54-18.912 13.605-13.579 19.187-27.553 18.162-45.469-.764-13.352-1.874-15.926-11.623-26.948-68.327-77.25-525.891-536.213-609.03-610.894-12.51-11.237-13.993-12.261-21.215-14.648-9.039-2.987-20.839-3.374-29.763-.975M958.214 626.3l-43.672 43.639 56.508 56.78c82.941 83.343 97.554 100.284 104.889 121.604 17.031 49.502-33.418 106.677-84.92 96.241-22.155-4.489-33.055-13.606-121.049-101.241l-64.529-64.267-45.173 45.173-45.172 45.172 59.206 59.55c102.775 103.371 105.633 107.085 105.681 137.382.078 49.301-44.153 85.663-91.286 75.046-22.224-5.007-34.492-15.337-124.49-104.824l-58.292-57.961-43.959 43.95c-24.177 24.172-43.845 44.242-43.707 44.6.138.357 28.196 28.934 62.351 63.503C681.279 1232.548 681 1232.178 681 1263.591c0 32.153-14.149 56.094-41.422 70.091-16.469 8.452-47.062 9.795-60.868 2.672-16.249-8.385-46.944-36.789-133.205-123.267l-36.996-37.088-44.213 44.205-44.213 44.205 44.211 44.545c83.354 83.984 108.839 112.158 114.062 126.097 10.05 26.823 5.962 53.973-11.398 75.685-24.708 30.904-73.296 38.438-101.458 15.732-18.667-15.051-48.849-43.643-104.796-99.278l-51.795-51.507-4.061 3.909c-44.153 42.496-61.011 111.699-41.141 168.881 4.221 12.147 14.101 31.84 19.231 38.33 27.027 34.191 304.879 311.204 365.562 364.458 33.675 29.552 100.353 37.664 149.701 18.214 19.456-7.669 26.53-12.428 45.218-30.422 32.039-30.851 92.011-89.461 135.081-132.015 83.169-82.171 674.5-673.491 674.522-674.508.024-1.142-510.187-510.86-535.328-534.811l-15.807-15.058-43.673 43.639" fill-rule="evenodd"/>
</svg>